<?xml version="1.0" standalone="no"?>
<!DOCTYPE svg PUBLIC "-//W3C//DTD SVG 20010904//EN"
 "http://www.w3.org/TR/2001/REC-SVG-20010904/DTD/svg10.dtd">
<svg version="1.0" xmlns="http://www.w3.org/2000/svg"
 width="100.000000pt" height="100.000000pt" viewBox="0 0 100.000000 100.000000"
 preserveAspectRatio="xMidYMid meet">
<metadata>
Created by potrace 1.16, written by Peter Selinger 2001-2019
</metadata>
<g transform="translate(0.000000,100.000000) scale(0.100000,-0.100000)"
fill="#000000" stroke="none">
<path d="M345 766 c-181 -86 -225 -325 -87 -470 20 -21 60 -49 87 -62 48 -23
59 -24 268 -24 138 0 217 4 217 10 0 6 -46 10 -117 10 -92 1 -113 3 -98 12 42
23 98 85 121 133 33 70 33 180 0 250 -29 61 -86 117 -146 144 -66 30 -178 29
-245 -3z m230 -20 c94 -40 159 -140 159 -246 -1 -77 -18 -123 -69 -178 -45
-51 -103 -79 -175 -87 l-55 -5 61 14 c83 19 114 37 163 92 39 44 67 112 58
137 -3 7 -8 -1 -12 -18 -42 -162 -202 -240 -346 -167 -227 115 -144 454 110
452 53 -1 114 -20 142 -46 10 -9 22 -15 25 -12 17 18 -114 78 -171 78 -79 0
-198 -74 -225 -140 -7 -17 -15 -29 -17 -26 -9 8 26 62 65 100 74 71 190 92
287 52z"/>
<path d="M415 695 c-16 -15 -25 -36 -25 -55 0 -19 9 -40 25 -55 15 -16 36 -25
55 -25 70 0 105 86 55 135 -15 16 -36 25 -55 25 -19 0 -40 -9 -55 -25z"/>
<path d="M275 555 c-16 -15 -25 -36 -25 -55 0 -19 9 -40 25 -55 15 -16 36 -25
55 -25 19 0 40 9 55 25 16 15 25 36 25 55 0 19 -9 40 -25 55 -15 16 -36 25
-55 25 -19 0 -40 -9 -55 -25z"/>
<path d="M545 555 c-16 -15 -25 -36 -25 -55 0 -19 9 -40 25 -55 49 -50 135
-15 135 55 0 41 -39 80 -80 80 -19 0 -40 -9 -55 -25z"/>
<path d="M415 415 c-50 -49 -15 -135 55 -135 19 0 40 9 55 25 16 15 25 36 25
55 0 19 -9 40 -25 55 -15 16 -36 25 -55 25 -19 0 -40 -9 -55 -25z"/>
</g>
</svg>
